<?xml version="1.0" ?><!DOCTYPE svg  PUBLIC '-//W3C//DTD SVG 1.1//EN'  'http://www.w3.org/Graphics/SVG/1.1/DTD/svg11.dtd'><svg width="512px" height="512px" viewBox="0 0 512 512" enable-background="new 0 0 512 512" id="Chess" version="1.1" xml:space="preserve" xmlns="http://www.w3.org/2000/svg" xmlns:xlink="http://www.w3.org/1999/xlink"><path d="M140.791,392.415l0.004,27.411l-13.053,0.003l0.006,44.381l185.473-0.027h36.433v-44.458h-11.755l-0.004-27.339h-11.33  c0.852-6.296,1.553-12.532,1.672-18.769c0.108-6.688-0.582-13.157-1.894-19.447c-3.351-16.072-10.759-30.969-19.264-45.34  c-14.976-25.185-34.646-46.464-55.019-67.22c-2.184-2.124-4.248-4.382-7.778-8.091c17.858,4.17,33.098,0.369,48.068-4.838  c10.798-3.726,19.219-0.646,26.922,7.056c16.275,16.524,32.474,19.213,52.978,9.325c8.688-4.249,16.777-20.433,14.966-29.84  c-0.583-3.006-1.855-6.535-0.884-9.167c3.14-9.139-1.692-13.834-8.049-18.979c-14.778-12.008-29.378-24.344-43.319-37.264  c-7.015-6.49-12.296-14.79-18.578-22.043c-2.708-3.096-5.804-6.176-9.334-8.225c-4.367-2.572-9.378-3.992-14.135-5.906  c-10.261-4.171-13.207-5.382-14.061-11.484l0.133-1.571c0.455-5.407-3.133-10.328-8.42-11.548l-7.239-1.67l-0.006-39.574h-0.449  c-22.269,0.004-40.573,16.967-42.708,38.684c-47.26,14.305-75.133,47.138-89.155,93.25c-12.647,41.476-5.014,81.378,7.735,121.294  c7.721,24.229,14.53,48.92,20.068,73.791c1.212,5.578,0.958,11.562,0.376,17.604L140.791,392.415z M287.989,160.093  c-5.181,0-9.38-4.2-9.38-9.38s4.199-9.38,9.38-9.38s9.38,4.199,9.38,9.38S293.17,160.093,287.989,160.093z"/></svg>